G04 #@! TF.FileFunction,Copper,L1,Top,Mixed*
%FSLAX46Y46*%
G04 Gerber Fmt 4.6, Leading zero omitted, Abs format (unit mm)*
G04 Created by KiCad (PCBNEW 4.0.7) date 02/04/18 18:28:48*
%MOMM*%
%LPD*%
G01*
G04 APERTURE LIST*
%ADD10C,0.100000*%
%ADD11R,0.800000X1.500000*%
%ADD12R,2.200000X3.100000*%
%ADD13R,0.700000X1.000000*%
%ADD14C,0.800000*%
%ADD15C,0.300000*%
%ADD16C,0.200000*%
G04 APERTURE END LIST*
D10*
D11*
X6496800Y12366300D03*
X5246800Y12366300D03*
X3996800Y12366300D03*
D12*
X8996800Y15116300D03*
X1496800Y15116300D03*
D13*
X8696800Y3991300D03*
X7296800Y3991300D03*
X4546800Y2241300D03*
X5946800Y2241300D03*
X4546800Y3991300D03*
X5946800Y3991300D03*
D14*
X2790800Y2023300D03*
X7489800Y2912300D03*
X5330800Y1134300D03*
D15*
X7296800Y3991300D02*
X7296800Y5041300D01*
X7121800Y12366300D02*
X6496800Y12366300D01*
X8246800Y11241300D02*
X7121800Y12366300D01*
X8246800Y5991300D02*
X8246800Y11241300D01*
X7296800Y5041300D02*
X8246800Y5991300D01*
X5946800Y3991300D02*
X7296800Y3991300D01*
X7296800Y3991300D02*
X7296800Y3691300D01*
X7296800Y3691300D02*
X7489800Y3498300D01*
X7489800Y3498300D02*
X7489800Y2912300D01*
X5246800Y12366300D02*
X5246800Y11741300D01*
X5246800Y11741300D02*
X4496800Y10991300D01*
X4496800Y10991300D02*
X3996800Y10991300D01*
X3996800Y10991300D02*
X2246800Y9241300D01*
X2246800Y9241300D02*
X2246800Y4541300D01*
X2246800Y4541300D02*
X4546800Y2241300D01*
X5330800Y1134300D02*
X4853800Y1134300D01*
X4546800Y1441300D02*
X4546800Y2241300D01*
X4853800Y1134300D02*
X4546800Y1441300D01*
X5946800Y2241300D02*
X5946800Y2291300D01*
X5946800Y2291300D02*
X4546800Y3691300D01*
X4546800Y3691300D02*
X4546800Y3991300D01*
D16*
G36*
X7488964Y13566300D02*
X7516856Y13418069D01*
X7604460Y13281928D01*
X7738129Y13190596D01*
X7896800Y13158464D01*
X10046800Y13158464D01*
X10046800Y441300D01*
X5748529Y441300D01*
X5783372Y455697D01*
X6008612Y680545D01*
X6130661Y974472D01*
X6130939Y1292732D01*
X6114109Y1333464D01*
X6296800Y1333464D01*
X6445031Y1361356D01*
X6581172Y1448960D01*
X6672504Y1582629D01*
X6704636Y1741300D01*
X6704636Y2717626D01*
X6811197Y2459728D01*
X7036045Y2234488D01*
X7329972Y2112439D01*
X7648232Y2112161D01*
X7942372Y2233697D01*
X8167612Y2458545D01*
X8289661Y2752472D01*
X8289939Y3070732D01*
X8281440Y3091300D01*
X8546800Y3091300D01*
X8646800Y3191300D01*
X8646800Y3941300D01*
X8746800Y3941300D01*
X8746800Y3191300D01*
X8846800Y3091300D01*
X9126365Y3091300D01*
X9273382Y3152196D01*
X9385904Y3264718D01*
X9446800Y3411735D01*
X9446800Y3841300D01*
X9346800Y3941300D01*
X8746800Y3941300D01*
X8646800Y3941300D01*
X8626800Y3941300D01*
X8626800Y4041300D01*
X8646800Y4041300D01*
X8646800Y4791300D01*
X8746800Y4791300D01*
X8746800Y4041300D01*
X9346800Y4041300D01*
X9446800Y4141300D01*
X9446800Y4570865D01*
X9385904Y4717882D01*
X9273382Y4830404D01*
X9126365Y4891300D01*
X8846800Y4891300D01*
X8746800Y4791300D01*
X8646800Y4791300D01*
X8546800Y4891300D01*
X8267235Y4891300D01*
X8120218Y4830404D01*
X8007696Y4717882D01*
X7995411Y4688224D01*
X7939140Y4775672D01*
X7861820Y4828502D01*
X8635709Y5602391D01*
X8754934Y5780824D01*
X8796800Y5991300D01*
X8796800Y11241300D01*
X8754934Y11451776D01*
X8635709Y11630209D01*
X7510709Y12755209D01*
X7332276Y12874434D01*
X7304636Y12879932D01*
X7304636Y13116300D01*
X7276744Y13264531D01*
X7189140Y13400672D01*
X7055471Y13492004D01*
X6896800Y13524136D01*
X6096800Y13524136D01*
X5948569Y13496244D01*
X5871678Y13446766D01*
X5805471Y13492004D01*
X5646800Y13524136D01*
X4846800Y13524136D01*
X4698569Y13496244D01*
X4627971Y13450815D01*
X4623382Y13455404D01*
X4476365Y13516300D01*
X4146800Y13516300D01*
X4046800Y13416300D01*
X4046800Y12416300D01*
X4066800Y12416300D01*
X4066800Y12316300D01*
X4046800Y12316300D01*
X4046800Y12296300D01*
X3946800Y12296300D01*
X3946800Y12316300D01*
X3296800Y12316300D01*
X3196800Y12216300D01*
X3196800Y11536735D01*
X3257696Y11389718D01*
X3370218Y11277196D01*
X3465437Y11237755D01*
X1857891Y9630209D01*
X1738666Y9451776D01*
X1696800Y9241300D01*
X1696800Y4541300D01*
X1738666Y4330824D01*
X1857891Y4152391D01*
X3788964Y2221318D01*
X3788964Y1741300D01*
X3816856Y1593069D01*
X3904460Y1456928D01*
X4007726Y1386369D01*
X4038666Y1230824D01*
X4157891Y1052391D01*
X4464889Y745394D01*
X4464891Y745391D01*
X4560170Y681728D01*
X4643324Y626166D01*
X4723603Y610197D01*
X4877045Y456488D01*
X4913622Y441300D01*
X446800Y441300D01*
X446800Y13158464D01*
X2596800Y13158464D01*
X2745031Y13186356D01*
X2759808Y13195865D01*
X3196800Y13195865D01*
X3196800Y12516300D01*
X3296800Y12416300D01*
X3946800Y12416300D01*
X3946800Y13416300D01*
X3846800Y13516300D01*
X3517235Y13516300D01*
X3370218Y13455404D01*
X3257696Y13342882D01*
X3196800Y13195865D01*
X2759808Y13195865D01*
X2881172Y13273960D01*
X2972504Y13407629D01*
X3004636Y13566300D01*
X3004636Y16541300D01*
X7488964Y16541300D01*
X7488964Y13566300D01*
X7488964Y13566300D01*
G37*
X7488964Y13566300D02*
X7516856Y13418069D01*
X7604460Y13281928D01*
X7738129Y13190596D01*
X7896800Y13158464D01*
X10046800Y13158464D01*
X10046800Y441300D01*
X5748529Y441300D01*
X5783372Y455697D01*
X6008612Y680545D01*
X6130661Y974472D01*
X6130939Y1292732D01*
X6114109Y1333464D01*
X6296800Y1333464D01*
X6445031Y1361356D01*
X6581172Y1448960D01*
X6672504Y1582629D01*
X6704636Y1741300D01*
X6704636Y2717626D01*
X6811197Y2459728D01*
X7036045Y2234488D01*
X7329972Y2112439D01*
X7648232Y2112161D01*
X7942372Y2233697D01*
X8167612Y2458545D01*
X8289661Y2752472D01*
X8289939Y3070732D01*
X8281440Y3091300D01*
X8546800Y3091300D01*
X8646800Y3191300D01*
X8646800Y3941300D01*
X8746800Y3941300D01*
X8746800Y3191300D01*
X8846800Y3091300D01*
X9126365Y3091300D01*
X9273382Y3152196D01*
X9385904Y3264718D01*
X9446800Y3411735D01*
X9446800Y3841300D01*
X9346800Y3941300D01*
X8746800Y3941300D01*
X8646800Y3941300D01*
X8626800Y3941300D01*
X8626800Y4041300D01*
X8646800Y4041300D01*
X8646800Y4791300D01*
X8746800Y4791300D01*
X8746800Y4041300D01*
X9346800Y4041300D01*
X9446800Y4141300D01*
X9446800Y4570865D01*
X9385904Y4717882D01*
X9273382Y4830404D01*
X9126365Y4891300D01*
X8846800Y4891300D01*
X8746800Y4791300D01*
X8646800Y4791300D01*
X8546800Y4891300D01*
X8267235Y4891300D01*
X8120218Y4830404D01*
X8007696Y4717882D01*
X7995411Y4688224D01*
X7939140Y4775672D01*
X7861820Y4828502D01*
X8635709Y5602391D01*
X8754934Y5780824D01*
X8796800Y5991300D01*
X8796800Y11241300D01*
X8754934Y11451776D01*
X8635709Y11630209D01*
X7510709Y12755209D01*
X7332276Y12874434D01*
X7304636Y12879932D01*
X7304636Y13116300D01*
X7276744Y13264531D01*
X7189140Y13400672D01*
X7055471Y13492004D01*
X6896800Y13524136D01*
X6096800Y13524136D01*
X5948569Y13496244D01*
X5871678Y13446766D01*
X5805471Y13492004D01*
X5646800Y13524136D01*
X4846800Y13524136D01*
X4698569Y13496244D01*
X4627971Y13450815D01*
X4623382Y13455404D01*
X4476365Y13516300D01*
X4146800Y13516300D01*
X4046800Y13416300D01*
X4046800Y12416300D01*
X4066800Y12416300D01*
X4066800Y12316300D01*
X4046800Y12316300D01*
X4046800Y12296300D01*
X3946800Y12296300D01*
X3946800Y12316300D01*
X3296800Y12316300D01*
X3196800Y12216300D01*
X3196800Y11536735D01*
X3257696Y11389718D01*
X3370218Y11277196D01*
X3465437Y11237755D01*
X1857891Y9630209D01*
X1738666Y9451776D01*
X1696800Y9241300D01*
X1696800Y4541300D01*
X1738666Y4330824D01*
X1857891Y4152391D01*
X3788964Y2221318D01*
X3788964Y1741300D01*
X3816856Y1593069D01*
X3904460Y1456928D01*
X4007726Y1386369D01*
X4038666Y1230824D01*
X4157891Y1052391D01*
X4464889Y745394D01*
X4464891Y745391D01*
X4560170Y681728D01*
X4643324Y626166D01*
X4723603Y610197D01*
X4877045Y456488D01*
X4913622Y441300D01*
X446800Y441300D01*
X446800Y13158464D01*
X2596800Y13158464D01*
X2745031Y13186356D01*
X2759808Y13195865D01*
X3196800Y13195865D01*
X3196800Y12516300D01*
X3296800Y12416300D01*
X3946800Y12416300D01*
X3946800Y13416300D01*
X3846800Y13516300D01*
X3517235Y13516300D01*
X3370218Y13455404D01*
X3257696Y13342882D01*
X3196800Y13195865D01*
X2759808Y13195865D01*
X2881172Y13273960D01*
X2972504Y13407629D01*
X3004636Y13566300D01*
X3004636Y16541300D01*
X7488964Y16541300D01*
X7488964Y13566300D01*
M02*
