G04 #@! TF.FileFunction,Soldermask,Bot*
%FSLAX46Y46*%
G04 Gerber Fmt 4.6, Leading zero omitted, Abs format (unit mm)*
G04 Created by KiCad (PCBNEW 4.0.7) date 02/04/18 18:28:48*
%MOMM*%
%LPD*%
G01*
G04 APERTURE LIST*
%ADD10C,0.100000*%
G04 APERTURE END LIST*
D10*
G36*
X7026800Y611300D02*
X5866800Y611300D01*
X5866800Y1471300D01*
X7026800Y1471300D01*
X7026800Y611300D01*
X7026800Y611300D01*
G37*
G36*
X4626800Y1561300D02*
X3466800Y1561300D01*
X3466800Y2421300D01*
X4626800Y2421300D01*
X4626800Y1561300D01*
X4626800Y1561300D01*
G37*
G36*
X7026800Y2511300D02*
X5866800Y2511300D01*
X5866800Y3371300D01*
X7026800Y3371300D01*
X7026800Y2511300D01*
X7026800Y2511300D01*
G37*
G36*
X5370740Y9320521D02*
X5597428Y9273989D01*
X5810754Y9184315D01*
X6002604Y9054911D01*
X6165665Y8890706D01*
X6293727Y8697959D01*
X6381908Y8484014D01*
X6426639Y8258109D01*
X6426639Y8258078D01*
X6426851Y8257005D01*
X6423160Y7992691D01*
X6422918Y7991628D01*
X6422918Y7991593D01*
X6371897Y7767028D01*
X6277775Y7555624D01*
X6144384Y7366531D01*
X5976796Y7206940D01*
X5781416Y7082947D01*
X5565661Y6999261D01*
X5337769Y6959078D01*
X5106409Y6963924D01*
X4880389Y7013618D01*
X4668338Y7106260D01*
X4478314Y7238331D01*
X4317561Y7404795D01*
X4192203Y7599313D01*
X4107016Y7814473D01*
X4065241Y8042083D01*
X4068472Y8273466D01*
X4116586Y8499825D01*
X4207750Y8712526D01*
X4338487Y8903463D01*
X4503827Y9065376D01*
X4697462Y9192087D01*
X4912021Y9278774D01*
X5139336Y9322137D01*
X5370740Y9320521D01*
X5370740Y9320521D01*
G37*
M02*
